G04*
G04 #@! TF.GenerationSoftware,Altium Limited,Altium Designer,25.0.2 (28)*
G04*
G04 Layer_Color=32896*
%FSLAX44Y44*%
%MOMM*%
G71*
G04*
G04 #@! TF.SameCoordinates,8F412EF3-5CC8-44BB-A802-B28D9E73D2E3*
G04*
G04*
G04 #@! TF.FilePolarity,Positive*
G04*
G01*
G75*
%ADD12C,0.1524*%
%ADD14C,0.1016*%
%ADD17C,0.0762*%
%ADD18C,0.1600*%
%ADD81C,0.2500*%
%ADD82C,0.2032*%
D12*
X848944Y429677D02*
X890600D01*
X848944Y378115D02*
X890600D01*
D14*
X905368Y401944D02*
Y413628D01*
X932546D01*
Y401944D02*
Y413628D01*
X905368Y401944D02*
X932546D01*
X917814Y403722D02*
X919846D01*
X917814Y411850D02*
X919846D01*
X932292Y375944D02*
Y387628D01*
X905114Y375944D02*
X932292D01*
X905114D02*
Y387628D01*
X932292D01*
X917814Y385850D02*
X919846D01*
X917814Y377722D02*
X919846D01*
X920488Y427824D02*
X932172D01*
X920488D02*
Y455002D01*
X932172D01*
Y427824D02*
Y455002D01*
X930394Y440270D02*
Y442302D01*
X922266Y440270D02*
Y442302D01*
X829484Y312936D02*
X831516D01*
X829484Y321064D02*
X831516D01*
X816784Y322842D02*
X843962D01*
X816784Y311158D02*
Y322842D01*
Y311158D02*
X843962D01*
Y322842D01*
X827064Y335484D02*
Y337516D01*
X818936Y335484D02*
Y337516D01*
X817158Y322784D02*
Y349962D01*
Y322784D02*
X828842D01*
Y349962D01*
X817158D02*
X828842D01*
X825018Y416857D02*
Y418889D01*
X833146Y416857D02*
Y418889D01*
X834924Y404411D02*
Y431589D01*
X823240D02*
X834924D01*
X823240Y404411D02*
Y431589D01*
Y404411D02*
X834924D01*
X849814Y453850D02*
X851846D01*
X849814Y445722D02*
X851846D01*
X837368Y443944D02*
X864546D01*
Y455628D01*
X837368D02*
X864546D01*
X837368Y443944D02*
Y455628D01*
X835314Y433722D02*
X837346D01*
X835314Y441850D02*
X837346D01*
X822614Y443628D02*
X849792D01*
X822614Y431944D02*
Y443628D01*
Y431944D02*
X849792D01*
Y443628D01*
X937484Y321936D02*
X939516D01*
X937484Y330064D02*
X939516D01*
X924784Y331842D02*
X951962D01*
X924784Y320158D02*
Y331842D01*
Y320158D02*
X951962D01*
Y331842D01*
X937484Y308936D02*
X939516D01*
X937484Y317064D02*
X939516D01*
X924784Y318842D02*
X951962D01*
X924784Y307158D02*
Y318842D01*
Y307158D02*
X951962D01*
Y318842D01*
X917814Y398850D02*
X919846D01*
X917814Y390722D02*
X919846D01*
X905368Y388944D02*
X932546D01*
Y400628D01*
X905368D02*
X932546D01*
X905368Y388944D02*
Y400628D01*
X935266Y398770D02*
Y400802D01*
X943394Y398770D02*
Y400802D01*
X945172Y386324D02*
Y413502D01*
X933488D02*
X945172D01*
X933488Y386324D02*
Y413502D01*
Y386324D02*
X945172D01*
X902314Y432722D02*
X904346D01*
X902314Y440850D02*
X904346D01*
X889614Y442628D02*
X916792D01*
X889614Y430944D02*
Y442628D01*
Y430944D02*
X916792D01*
Y442628D01*
X926814Y424850D02*
X928846D01*
X926814Y416722D02*
X928846D01*
X914368Y414944D02*
X941546D01*
Y426628D01*
X914368D02*
X941546D01*
X914368Y414944D02*
Y426628D01*
X902441Y452299D02*
X904473D01*
X902441Y444171D02*
X904473D01*
X889995Y442393D02*
X917173D01*
Y454077D01*
X889995D02*
X917173D01*
X889995Y442393D02*
Y454077D01*
X837038Y457158D02*
Y468842D01*
X864216D01*
Y457158D02*
Y468842D01*
X837038Y457158D02*
X864216D01*
X849484Y458936D02*
X851516D01*
X849484Y467064D02*
X851516D01*
X849484Y480064D02*
X851516D01*
X849484Y471936D02*
X851516D01*
X837038Y470158D02*
X864216D01*
Y481842D01*
X837038D02*
X864216D01*
X837038Y470158D02*
Y481842D01*
D17*
X901522Y430921D02*
X898190Y427589D01*
X901522D02*
X898190Y430921D01*
X901522Y429255D02*
X898190D01*
X899856Y427589D02*
Y430921D01*
X881000Y411998D02*
Y407833D01*
X880167Y407000D01*
X878501D01*
X877668Y407833D01*
Y411998D01*
X872669Y407000D02*
X876002D01*
X872669Y410332D01*
Y411165D01*
X873502Y411998D01*
X875169D01*
X876002Y411165D01*
D18*
X889666Y486333D02*
X884334D01*
X883001Y487666D01*
Y490332D01*
X884334Y491665D01*
X889666D01*
X890999Y490332D01*
Y487666D01*
X888333Y488999D02*
X890999Y486333D01*
Y487666D02*
X889666Y486333D01*
X890999Y478335D02*
Y483667D01*
X885667Y478335D01*
X884334D01*
X883001Y479668D01*
Y482334D01*
X884334Y483667D01*
X812332Y441666D02*
X813665Y442999D01*
X816331D01*
X817664Y441666D01*
Y436334D01*
X816331Y435001D01*
X813665D01*
X812332Y436334D01*
X809667Y435001D02*
X807001D01*
X808334D01*
Y442999D01*
X809667Y441666D01*
X803002Y435001D02*
X800336D01*
X801669D01*
Y442999D01*
X803002Y441666D01*
X889665Y374999D02*
Y368334D01*
X888332Y367001D01*
X885666D01*
X884333Y368334D01*
Y374999D01*
X876336Y367001D02*
X881667D01*
X876336Y372333D01*
Y373666D01*
X877668Y374999D01*
X880334D01*
X881667Y373666D01*
X978997Y403001D02*
Y410999D01*
X974998D01*
X973665Y409666D01*
Y407000D01*
X974998Y405667D01*
X978997D01*
X976331D02*
X973665Y403001D01*
X970999D02*
X968334D01*
X969666D01*
Y410999D01*
X970999Y409666D01*
X964335Y404334D02*
X963002Y403001D01*
X960336D01*
X959003Y404334D01*
Y409666D01*
X960336Y410999D01*
X963002D01*
X964335Y409666D01*
Y408333D01*
X963002Y407000D01*
X959003D01*
X975997Y308001D02*
Y315999D01*
X971998D01*
X970665Y314666D01*
Y312000D01*
X971998Y310667D01*
X975997D01*
X973331D02*
X970665Y308001D01*
X967999D02*
X965334D01*
X966666D01*
Y315999D01*
X967999Y314666D01*
X961335D02*
X960002Y315999D01*
X957336D01*
X956003Y314666D01*
Y313333D01*
X957336Y312000D01*
X956003Y310667D01*
Y309334D01*
X957336Y308001D01*
X960002D01*
X961335Y309334D01*
Y310667D01*
X960002Y312000D01*
X961335Y313333D01*
Y314666D01*
X960002Y312000D02*
X957336D01*
X936501Y432003D02*
X944499D01*
Y436002D01*
X943166Y437335D01*
X940500D01*
X939167Y436002D01*
Y432003D01*
Y434669D02*
X936501Y437335D01*
Y440001D02*
Y442666D01*
Y441334D01*
X944499D01*
X943166Y440001D01*
X944499Y451997D02*
X943166Y449331D01*
X940500Y446665D01*
X937834D01*
X936501Y447998D01*
Y450664D01*
X937834Y451997D01*
X939167D01*
X940500Y450664D01*
Y446665D01*
X832997Y461001D02*
Y468999D01*
X828998D01*
X827665Y467666D01*
Y465000D01*
X828998Y463667D01*
X832997D01*
X830331D02*
X827665Y461001D01*
X824999D02*
X822334D01*
X823667D01*
Y468999D01*
X824999Y467666D01*
X813003Y468999D02*
X818335D01*
Y465000D01*
X815669Y466333D01*
X814336D01*
X813003Y465000D01*
Y462334D01*
X814336Y461001D01*
X817002D01*
X818335Y462334D01*
X886997Y434001D02*
Y441999D01*
X882998D01*
X881665Y440666D01*
Y438000D01*
X882998Y436667D01*
X886997D01*
X884331D02*
X881665Y434001D01*
X878999D02*
X876334D01*
X877666D01*
Y441999D01*
X878999Y440666D01*
X868336Y434001D02*
Y441999D01*
X872335Y438000D01*
X867003D01*
X975997Y417001D02*
Y424999D01*
X971998D01*
X970665Y423666D01*
Y421000D01*
X971998Y419667D01*
X975997D01*
X973331D02*
X970665Y417001D01*
X967999D02*
X965334D01*
X966666D01*
Y424999D01*
X967999Y423666D01*
X956003Y417001D02*
X961335D01*
X956003Y422333D01*
Y423666D01*
X957336Y424999D01*
X960002D01*
X961335Y423666D01*
X832664Y448001D02*
Y455999D01*
X828665D01*
X827332Y454666D01*
Y452000D01*
X828665Y450667D01*
X832664D01*
X829998D02*
X827332Y448001D01*
X824666D02*
X822001D01*
X823334D01*
Y455999D01*
X824666Y454666D01*
X818002Y448001D02*
X815336D01*
X816669D01*
Y455999D01*
X818002Y454666D01*
X943999Y382664D02*
X936001D01*
Y378666D01*
X937334Y377333D01*
X940000D01*
X941333Y378666D01*
Y382664D01*
Y379999D02*
X943999Y377333D01*
X936001Y374667D02*
Y369336D01*
X937334D01*
X942666Y374667D01*
X943999D01*
X813664Y313001D02*
Y320999D01*
X809666D01*
X808333Y319666D01*
Y317000D01*
X809666Y315667D01*
X813664D01*
X810999D02*
X808333Y313001D01*
X800335Y320999D02*
X803001Y319666D01*
X805667Y317000D01*
Y314334D01*
X804334Y313001D01*
X801668D01*
X800335Y314334D01*
Y315667D01*
X801668Y317000D01*
X805667D01*
X812999Y348665D02*
X805001D01*
Y344666D01*
X806334Y343333D01*
X809000D01*
X810333Y344666D01*
Y348665D01*
Y345999D02*
X812999Y343333D01*
X805001Y335336D02*
Y340667D01*
X809000D01*
X807667Y338001D01*
Y336668D01*
X809000Y335336D01*
X811666D01*
X812999Y336668D01*
Y339334D01*
X811666Y340667D01*
X894666Y337000D02*
X889334D01*
X888001Y338333D01*
Y340999D01*
X889334Y342332D01*
X894666D01*
X895999Y340999D01*
Y338333D01*
X893333Y339666D02*
X895999Y337000D01*
Y338333D02*
X894666Y337000D01*
X895999Y334334D02*
Y331668D01*
Y333001D01*
X888001D01*
X889334Y334334D01*
X857001Y371665D02*
X864999D01*
Y367666D01*
X863666Y366333D01*
X858334D01*
X857001Y367666D01*
Y371665D01*
Y358335D02*
Y363667D01*
X861000D01*
X859667Y361001D01*
Y359668D01*
X861000Y358335D01*
X863666D01*
X864999Y359668D01*
Y362334D01*
X863666Y363667D01*
X789001Y385664D02*
X796999D01*
Y381666D01*
X795666Y380333D01*
X790334D01*
X789001Y381666D01*
Y385664D01*
X796999Y373668D02*
X789001D01*
X793000Y377667D01*
Y372336D01*
X962665Y396666D02*
X963998Y397999D01*
X966664D01*
X967997Y396666D01*
Y391334D01*
X966664Y390001D01*
X963998D01*
X962665Y391334D01*
X959999Y390001D02*
X957334D01*
X958666D01*
Y397999D01*
X959999Y396666D01*
X953335D02*
X952002Y397999D01*
X949336D01*
X948003Y396666D01*
Y395333D01*
X949336Y394000D01*
X948003Y392667D01*
Y391334D01*
X949336Y390001D01*
X952002D01*
X953335Y391334D01*
Y392667D01*
X952002Y394000D01*
X953335Y395333D01*
Y396666D01*
X952002Y394000D02*
X949336D01*
X827665Y480666D02*
X828998Y481999D01*
X831664D01*
X832997Y480666D01*
Y475334D01*
X831664Y474001D01*
X828998D01*
X827665Y475334D01*
X824999Y474001D02*
X822334D01*
X823667D01*
Y481999D01*
X824999Y480666D01*
X818335Y481999D02*
X813003D01*
Y480666D01*
X818335Y475334D01*
Y474001D01*
X970665Y328666D02*
X971998Y329999D01*
X974664D01*
X975997Y328666D01*
Y323334D01*
X974664Y322001D01*
X971998D01*
X970665Y323334D01*
X967999Y322001D02*
X965334D01*
X966666D01*
Y329999D01*
X967999Y328666D01*
X956003Y329999D02*
X958669Y328666D01*
X961335Y326000D01*
Y323334D01*
X960002Y322001D01*
X957336D01*
X956003Y323334D01*
Y324667D01*
X957336Y326000D01*
X961335D01*
X964665Y382666D02*
X965998Y383999D01*
X968664D01*
X969997Y382666D01*
Y377334D01*
X968664Y376001D01*
X965998D01*
X964665Y377334D01*
X961999Y376001D02*
X959334D01*
X960667D01*
Y383999D01*
X961999Y382666D01*
X950003Y383999D02*
X955335D01*
Y380000D01*
X952669Y381333D01*
X951336D01*
X950003Y380000D01*
Y377334D01*
X951336Y376001D01*
X954002D01*
X955335Y377334D01*
X881665Y452666D02*
X882998Y453999D01*
X885664D01*
X886997Y452666D01*
Y447334D01*
X885664Y446001D01*
X882998D01*
X881665Y447334D01*
X878999Y446001D02*
X876334D01*
X877666D01*
Y453999D01*
X878999Y452666D01*
X868336Y446001D02*
Y453999D01*
X872335Y450000D01*
X867003D01*
X805665Y427666D02*
X806998Y428999D01*
X809664D01*
X810997Y427666D01*
Y422334D01*
X809664Y421001D01*
X806998D01*
X805665Y422334D01*
X802999Y421001D02*
X800334D01*
X801666D01*
Y428999D01*
X802999Y427666D01*
X791003Y421001D02*
X796335D01*
X791003Y426333D01*
Y427666D01*
X792336Y428999D01*
X795002D01*
X796335Y427666D01*
D81*
X915850Y358450D02*
G03*
X915850Y358450I-1250J0D01*
G01*
X910850Y478386D02*
G03*
X910850Y478386I-1250J0D01*
G01*
D82*
X900630Y357200D02*
Y367360D01*
X926030D01*
X900630Y334340D02*
Y344500D01*
Y334340D02*
X926030D01*
X895630Y477136D02*
Y487296D01*
X921030D01*
X895630Y454276D02*
Y464436D01*
Y454276D02*
X921030D01*
M02*
