G04*
G04 #@! TF.GenerationSoftware,Altium Limited,Altium Designer,25.0.2 (28)*
G04*
G04 Layer_Color=32768*
%FSLAX44Y44*%
%MOMM*%
G71*
G04*
G04 #@! TF.SameCoordinates,8F412EF3-5CC8-44BB-A802-B28D9E73D2E3*
G04*
G04*
G04 #@! TF.FilePolarity,Positive*
G04*
G01*
G75*
%ADD12C,0.1524*%
%ADD15C,0.1000*%
%ADD87C,0.0500*%
G36*
X1065702Y79278D02*
X830498D01*
Y304322D01*
X1065702D01*
Y79278D01*
D02*
G37*
G36*
X890346Y426502D02*
X903300D01*
Y381290D01*
X890346D01*
Y380531D01*
X907758D01*
Y374181D01*
X950938D01*
Y317539D01*
X907758D01*
Y311189D01*
X843496D01*
Y317285D01*
X828002D01*
Y374435D01*
X843496D01*
Y380531D01*
X849198D01*
Y381290D01*
X836244D01*
Y426502D01*
X849198D01*
Y429423D01*
X890346D01*
Y426502D01*
D02*
G37*
D12*
Y381290D02*
X903300D01*
X890346Y378369D02*
Y381290D01*
X849198Y378369D02*
X890346D01*
X849198D02*
Y381290D01*
X836244D02*
X849198D01*
X836244D02*
Y426502D01*
X849198D01*
Y429423D01*
X890346D01*
Y426502D02*
Y429423D01*
Y426502D02*
X903300D01*
Y381290D02*
Y426502D01*
X1065702Y79278D02*
Y304322D01*
X830498D02*
X1065702D01*
X830498Y79278D02*
Y304322D01*
Y79278D02*
X1065702D01*
X907758Y311189D02*
Y317539D01*
X950938D01*
Y374181D01*
X907758D02*
X950938D01*
X907758D02*
Y380531D01*
X843496D02*
X907758D01*
X843496Y374435D02*
Y380531D01*
X828002Y374435D02*
X843496D01*
X828002Y317285D02*
Y374435D01*
Y317285D02*
X843496D01*
Y311189D02*
Y317285D01*
Y311189D02*
X907758D01*
D15*
X806000Y246000D02*
X816000D01*
X811000Y241000D02*
Y251000D01*
X957000Y28000D02*
X967000D01*
X962000Y23000D02*
Y33000D01*
D87*
X828500Y210440D02*
Y281560D01*
X793500Y210440D02*
Y281560D01*
X828500D01*
X793500Y210440D02*
X828500D01*
X997560Y10500D02*
Y45500D01*
X926440Y10500D02*
Y45500D01*
Y10500D02*
X997560D01*
X926440Y45500D02*
X997560D01*
X338000Y341000D02*
X608000D01*
Y491000D01*
X338000Y341000D02*
Y491000D01*
X608000D01*
X337000Y165000D02*
X607000D01*
X337000Y15000D02*
Y165000D01*
X607000Y15000D02*
Y165000D01*
X337000Y15000D02*
X607000D01*
M02*
