G04*
G04 #@! TF.GenerationSoftware,Altium Limited,Altium Designer,25.0.2 (28)*
G04*
G04 Layer_Color=16711935*
%FSLAX44Y44*%
%MOMM*%
G71*
G04*
G04 #@! TF.SameCoordinates,8F412EF3-5CC8-44BB-A802-B28D9E73D2E3*
G04*
G04*
G04 #@! TF.FilePolarity,Negative*
G04*
G01*
G75*
%ADD37R,1.1024X1.1524*%
%ADD42R,1.1524X1.1024*%
%ADD43R,2.0032X1.5532*%
%ADD45R,3.2032X3.2032*%
%ADD46C,3.2032*%
%ADD47C,1.9304*%
%ADD48O,1.7032X1.5032*%
%ADD49R,1.7032X1.5032*%
%ADD50C,2.3032*%
%ADD51R,2.3032X2.3032*%
%ADD52O,2.0032X1.7032*%
%ADD53C,2.2032*%
%ADD54C,1.6032*%
%ADD55C,2.0032*%
%ADD56R,2.2032X2.2032*%
%ADD57C,6.2032*%
%ADD58C,2.7032*%
%ADD59C,1.1032*%
%ADD77R,1.2954X0.5080*%
%ADD80R,1.4032X1.0532*%
D37*
X926330Y433786D02*
D03*
Y448786D02*
D03*
X823000Y329000D02*
D03*
Y344000D02*
D03*
X829082Y425373D02*
D03*
Y410373D02*
D03*
X939330Y407286D02*
D03*
Y392286D02*
D03*
D42*
X911330Y407786D02*
D03*
X926330D02*
D03*
X926330Y381786D02*
D03*
X911330D02*
D03*
X823000Y317000D02*
D03*
X838000D02*
D03*
X858330Y449786D02*
D03*
X843330D02*
D03*
X828830Y437786D02*
D03*
X843830D02*
D03*
X931000Y326000D02*
D03*
X946000D02*
D03*
X931000Y313000D02*
D03*
X946000D02*
D03*
X926330Y394786D02*
D03*
X911330D02*
D03*
X895830Y436786D02*
D03*
X910830D02*
D03*
X935330Y420786D02*
D03*
X920330D02*
D03*
X910957Y448236D02*
D03*
X895957D02*
D03*
X843000Y463000D02*
D03*
X858000D02*
D03*
X858000Y476000D02*
D03*
X843000D02*
D03*
D43*
X844330Y334350D02*
D03*
Y367850D02*
D03*
X811828Y410146D02*
D03*
Y376646D02*
D03*
D45*
X752000Y404000D02*
D03*
X746000Y103000D02*
D03*
D46*
X676000Y404000D02*
D03*
X670000Y103000D02*
D03*
D47*
X871900Y268000D02*
D03*
X910000D02*
D03*
X948100D02*
D03*
X986200D02*
D03*
X1024300D02*
D03*
Y115600D02*
D03*
X986200D02*
D03*
X948100D02*
D03*
X910000D02*
D03*
X871900D02*
D03*
D48*
X896000Y31300D02*
D03*
D49*
Y56700D02*
D03*
D50*
X1145400Y130000D02*
D03*
X1146400Y335000D02*
D03*
X1038400Y362000D02*
D03*
D51*
X1094600Y130000D02*
D03*
X1095600Y335000D02*
D03*
X987600Y362000D02*
D03*
D52*
X1116000Y206000D02*
D03*
Y256000D02*
D03*
X712000Y226000D02*
D03*
Y276000D02*
D03*
D53*
X585500Y416000D02*
D03*
X489000Y301000D02*
D03*
X359000Y201000D02*
D03*
X489000D02*
D03*
D54*
X360500Y416000D02*
D03*
X584500Y90000D02*
D03*
X359500D02*
D03*
D55*
X303000Y151400D02*
D03*
Y100600D02*
D03*
D56*
X359000Y301000D02*
D03*
D57*
X1144000Y464000D02*
D03*
Y41000D02*
D03*
X290000Y464000D02*
D03*
X291000Y47000D02*
D03*
D58*
Y393000D02*
D03*
Y187000D02*
D03*
D59*
X1000000Y421000D02*
D03*
X969000Y491000D02*
D03*
X1012000Y464000D02*
D03*
D77*
X843737Y422946D02*
D03*
Y410246D02*
D03*
Y397546D02*
D03*
Y384846D02*
D03*
X895807D02*
D03*
Y397546D02*
D03*
Y410246D02*
D03*
Y422946D02*
D03*
D80*
X900830Y350799D02*
D03*
X925776Y360248D02*
D03*
X925830Y340995D02*
D03*
X895830Y470735D02*
D03*
X920776Y480184D02*
D03*
X920830Y460931D02*
D03*
M02*
