G04*
G04 #@! TF.GenerationSoftware,Altium Limited,Altium Designer,25.0.2 (28)*
G04*
G04 Layer_Color=128*
%FSLAX44Y44*%
%MOMM*%
G71*
G04*
G04 #@! TF.SameCoordinates,8F412EF3-5CC8-44BB-A802-B28D9E73D2E3*
G04*
G04*
G04 #@! TF.FilePolarity,Positive*
G04*
G01*
G75*
%ADD13C,0.1270*%
D13*
X746500Y404000D02*
X757500D01*
X752000Y398500D02*
Y409500D01*
X670500Y404000D02*
X681500D01*
X676000Y398500D02*
Y409500D01*
X740500Y103000D02*
X751500D01*
X746000Y97500D02*
Y108500D01*
X664500Y103000D02*
X675500D01*
X670000Y97500D02*
Y108500D01*
X864788Y268000D02*
X879012D01*
X871900Y260888D02*
Y275112D01*
X902888Y268000D02*
X917112D01*
X910000Y260888D02*
Y275112D01*
X940988Y268000D02*
X955212D01*
X948100Y260888D02*
Y275112D01*
X979088Y268000D02*
X993312D01*
X986200Y260888D02*
Y275112D01*
X1017188Y268000D02*
X1031412D01*
X1024300Y260888D02*
Y275112D01*
X1017188Y115600D02*
X1031412D01*
X1024300Y108488D02*
Y122712D01*
X979088Y115600D02*
X993312D01*
X986200Y108488D02*
Y122712D01*
X940988Y115600D02*
X955212D01*
X948100Y108488D02*
Y122712D01*
X902888Y115600D02*
X917112D01*
X910000Y108488D02*
Y122712D01*
X864788Y115600D02*
X879012D01*
X871900Y108488D02*
Y122712D01*
X892000Y31300D02*
X900000D01*
X896000Y27300D02*
Y35300D01*
X892000Y56700D02*
X900000D01*
X896000Y52700D02*
Y60700D01*
X1140900Y130000D02*
X1149900D01*
X1145400Y125500D02*
Y134500D01*
X1090100Y130000D02*
X1099100D01*
X1094600Y125500D02*
Y134500D01*
X1111500Y206000D02*
X1120500D01*
X1116000Y201500D02*
Y210500D01*
X1111500Y256000D02*
X1120500D01*
X1116000Y251500D02*
Y260500D01*
X1091100Y335000D02*
X1100100D01*
X1095600Y330500D02*
Y339500D01*
X1141900Y335000D02*
X1150900D01*
X1146400Y330500D02*
Y339500D01*
X1033900Y362000D02*
X1042900D01*
X1038400Y357500D02*
Y366500D01*
X983100Y362000D02*
X992100D01*
X987600Y357500D02*
Y366500D01*
X707500Y226000D02*
X716500D01*
X712000Y221500D02*
Y230500D01*
X707500Y276000D02*
X716500D01*
X712000Y271500D02*
Y280500D01*
X580500Y416000D02*
X590500D01*
X585500Y411000D02*
Y421000D01*
X355250Y416000D02*
X365750D01*
X360500Y410750D02*
Y421250D01*
X579250Y90000D02*
X589750D01*
X584500Y84750D02*
Y95250D01*
X354250Y90000D02*
X364750D01*
X359500Y84750D02*
Y95250D01*
X299000Y151400D02*
X307000D01*
X303000Y147400D02*
Y155400D01*
X299000Y100600D02*
X307000D01*
X303000Y96600D02*
Y104600D01*
X484000Y301000D02*
X494000D01*
X489000Y296000D02*
Y306000D01*
X354000Y201000D02*
X364000D01*
X359000Y196000D02*
Y206000D01*
X484000Y201000D02*
X494000D01*
X489000Y196000D02*
Y206000D01*
X354000Y301000D02*
X364000D01*
X359000Y296000D02*
Y306000D01*
X1129000Y464000D02*
X1159000D01*
X1144000Y449000D02*
Y479000D01*
X1129000Y41000D02*
X1159000D01*
X1144000Y26000D02*
Y56000D01*
X275000Y464000D02*
X305000D01*
X290000Y449000D02*
Y479000D01*
X276000Y47000D02*
X306000D01*
X291000Y32000D02*
Y62000D01*
X285500Y393000D02*
X296500D01*
X291000Y387500D02*
Y398500D01*
X285500Y187000D02*
X296500D01*
X291000Y181500D02*
Y192500D01*
X997500Y421000D02*
X1002500D01*
X1000000Y418500D02*
Y423500D01*
X947500Y407000D02*
X952500D01*
X950000Y404500D02*
Y409500D01*
X966500Y491000D02*
X971500D01*
X969000Y488500D02*
Y493500D01*
X880500Y310000D02*
X885500D01*
X883000Y307500D02*
Y312500D01*
X1009500Y464000D02*
X1014500D01*
X1012000Y461500D02*
Y466500D01*
X816500Y425000D02*
X821500D01*
X819000Y422500D02*
Y427500D01*
X828500Y385000D02*
X833500D01*
X831000Y382500D02*
Y387500D01*
X911500Y319000D02*
X916500D01*
X914000Y316500D02*
Y321500D01*
X943500Y421000D02*
X948500D01*
X946000Y418500D02*
Y423500D01*
X882815Y401972D02*
X887815D01*
X885315Y399472D02*
Y404472D01*
X857378Y437368D02*
X862378D01*
X859878Y434868D02*
Y439868D01*
M02*
