G04*
G04 #@! TF.GenerationSoftware,Altium Limited,Altium Designer,25.0.2 (28)*
G04*
G04 Layer_Color=12632256*
%FSLAX44Y44*%
%MOMM*%
G71*
G04*
G04 #@! TF.SameCoordinates,8F412EF3-5CC8-44BB-A802-B28D9E73D2E3*
G04*
G04*
G04 #@! TF.FilePolarity,Positive*
G04*
G01*
G75*
%ADD47C,1.9304*%
%ADD62R,3.0000X3.0000*%
%ADD63C,3.0000*%
%ADD64O,1.5000X1.3000*%
%ADD65R,1.5000X1.3000*%
%ADD66C,2.1000*%
%ADD67R,2.1000X2.1000*%
%ADD68O,1.8000X1.5000*%
%ADD69C,2.0000*%
%ADD70C,1.4000*%
%ADD71C,1.8000*%
%ADD72R,2.0000X2.0000*%
%ADD73C,6.0000*%
%ADD74C,2.5000*%
D47*
X871900Y268000D02*
D03*
X910000D02*
D03*
X948100D02*
D03*
X986200D02*
D03*
X1024300D02*
D03*
Y115600D02*
D03*
X986200D02*
D03*
X948100D02*
D03*
X910000D02*
D03*
X871900D02*
D03*
D62*
X752000Y404000D02*
D03*
X746000Y103000D02*
D03*
D63*
X676000Y404000D02*
D03*
X670000Y103000D02*
D03*
D64*
X896000Y31300D02*
D03*
D65*
Y56700D02*
D03*
D66*
X1145400Y130000D02*
D03*
X1146400Y335000D02*
D03*
X1038400Y362000D02*
D03*
D67*
X1094600Y130000D02*
D03*
X1095600Y335000D02*
D03*
X987600Y362000D02*
D03*
D68*
X1116000Y206000D02*
D03*
Y256000D02*
D03*
X712000Y226000D02*
D03*
Y276000D02*
D03*
D69*
X585500Y416000D02*
D03*
X489000Y301000D02*
D03*
X359000Y201000D02*
D03*
X489000D02*
D03*
D70*
X360500Y416000D02*
D03*
X584500Y90000D02*
D03*
X359500D02*
D03*
D71*
X303000Y151400D02*
D03*
Y100600D02*
D03*
D72*
X359000Y301000D02*
D03*
D73*
X1144000Y464000D02*
D03*
Y41000D02*
D03*
X290000Y464000D02*
D03*
X291000Y47000D02*
D03*
D74*
Y393000D02*
D03*
Y187000D02*
D03*
M02*
