G04*
G04 #@! TF.GenerationSoftware,Altium Limited,Altium Designer,25.0.2 (28)*
G04*
G04 Layer_Physical_Order=1*
G04 Layer_Color=255*
%FSLAX44Y44*%
%MOMM*%
G71*
G04*
G04 #@! TF.SameCoordinates,8F412EF3-5CC8-44BB-A802-B28D9E73D2E3*
G04*
G04*
G04 #@! TF.FilePolarity,Positive*
G04*
G01*
G75*
%ADD10C,0.2000*%
%ADD19O,2.2500X1.6000*%
%ADD20O,3.0000X1.5000*%
%ADD21R,3.0000X1.5000*%
%ADD22R,1.6000X1.5000*%
%ADD23R,0.9500X1.0000*%
%ADD24R,1.7000X2.5000*%
%ADD25R,5.9944X5.5118*%
%ADD26R,2.1844X0.8890*%
%ADD27R,2.5000X1.7000*%
%ADD28R,1.5000X1.6000*%
%ADD29R,1.3500X1.8000*%
%ADD30R,1.0000X0.9500*%
%ADD31R,1.8000X1.3500*%
%ADD32R,1.4000X1.0000*%
%ADD47C,1.9304*%
%ADD60C,1.0000*%
%ADD61C,0.5000*%
%ADD62R,3.0000X3.0000*%
%ADD63C,3.0000*%
%ADD64O,1.5000X1.3000*%
%ADD65R,1.5000X1.3000*%
%ADD66C,2.1000*%
%ADD67R,2.1000X2.1000*%
%ADD68O,1.8000X1.5000*%
%ADD69C,2.0000*%
%ADD70C,1.4000*%
%ADD71C,1.8000*%
%ADD72R,2.0000X2.0000*%
%ADD73C,6.0000*%
%ADD74C,2.5000*%
%ADD75C,0.9000*%
%ADD76C,0.8000*%
G36*
X320000Y390769D02*
X306375Y374000D01*
X277875D01*
X260000Y392000D01*
Y465000D01*
X320000D01*
Y390769D01*
D02*
G37*
G36*
X597000Y437375D02*
Y413000D01*
X578000Y394000D01*
Y289000D01*
X561000Y272000D01*
X549667D01*
X542000Y286000D01*
Y433909D01*
X557618Y450000D01*
X582571D01*
X597000Y437375D01*
D02*
G37*
G36*
X728587Y452000D02*
X767000Y408190D01*
Y296000D01*
X742000Y266000D01*
X704250D01*
X699934Y271000D01*
Y349364D01*
X736000Y386250D01*
X736000Y420000D01*
X732186Y424000D01*
X662000Y424000D01*
X615000Y377000D01*
X615000Y252000D01*
X626000Y241000D01*
X648000D01*
X653000Y236000D01*
Y222000D01*
X648000Y217000D01*
X616000D01*
X586000Y247000D01*
Y391000D01*
X647000Y452000D01*
X728587Y452000D01*
D02*
G37*
G36*
X1174000Y467500D02*
Y423186D01*
X1135485Y384671D01*
X1033287D01*
X1020000Y367037D01*
Y357000D01*
X1031001Y346000D01*
X1109365Y346000D01*
X1130000Y325365D01*
Y252000D01*
X1121000Y243000D01*
X1096414D01*
X1047813Y297000D01*
X998000D01*
X973829Y321171D01*
Y366000D01*
Y370000D01*
X1007627Y413000D01*
X1027000D01*
X1108000Y494000D01*
X1143714D01*
X1174000Y467500D01*
D02*
G37*
G36*
X529000Y431000D02*
Y264000D01*
X550000Y243000D01*
X568000D01*
X576000Y235000D01*
Y225000D01*
X568286Y219000D01*
X538000D01*
X505000Y252000D01*
X505000Y309280D01*
X490930Y324000D01*
X415391D01*
X366217Y285000D01*
X349000D01*
X343000Y291000D01*
Y428000D01*
X374000Y459000D01*
X501000Y459000D01*
X529000Y431000D01*
D02*
G37*
G36*
X385000Y141000D02*
Y96000D01*
X370000Y81000D01*
X354542Y81000D01*
X273000Y161183D01*
Y192143D01*
X284250Y205000D01*
X321000Y205000D01*
X385000Y141000D01*
D02*
G37*
G36*
X690000Y410000D02*
Y84000D01*
X694000Y80000D01*
X681000Y67000D01*
X639000D01*
X627000Y79000D01*
X626000D01*
Y191000D01*
X630000Y195000D01*
X652000D01*
X660000Y203000D01*
Y242000D01*
X630000Y272000D01*
X628000D01*
Y369555D01*
X671524Y413079D01*
X690000Y410000D01*
D02*
G37*
G36*
X1043000Y116000D02*
X1068000Y91000D01*
Y60000D01*
X1030000D01*
X1012000Y78000D01*
Y119021D01*
X1019979Y127000D01*
X1032000D01*
X1043000Y116000D01*
D02*
G37*
G36*
X1127000Y210000D02*
Y197000D01*
X1110000Y180000D01*
Y65000D01*
X1102000Y57000D01*
X1089800D01*
X1083000Y65500D01*
Y199000D01*
X1100000Y216000D01*
X1121000D01*
X1127000Y210000D01*
D02*
G37*
G36*
X796000Y240000D02*
Y171610D01*
X826000Y142000D01*
X878000D01*
X888080Y131920D01*
Y106080D01*
X879000Y97000D01*
X872000D01*
X868000Y93000D01*
Y58000D01*
X858000Y48000D01*
X767000D01*
X727000Y88000D01*
X727000Y212000D01*
X760000Y245000D01*
X791000D01*
X796000Y240000D01*
D02*
G37*
D10*
X1000000Y421000D02*
Y438500D01*
X998000Y451000D02*
X1000000Y449000D01*
X999498Y452500D02*
Y456000D01*
Y449502D02*
Y452500D01*
X984000D02*
X985500Y451000D01*
X998000D01*
X1000000Y449000D02*
X1014000D01*
X999498Y449502D02*
X1000000Y449000D01*
X991000Y464498D02*
X999498Y456000D01*
X989000Y464498D02*
X991000D01*
X883000Y307000D02*
X886000Y310000D01*
X950000Y379720D02*
Y407000D01*
X955000Y453000D02*
Y453750D01*
X952000Y486500D02*
X956500Y491000D01*
X993152Y486350D02*
X1018650D01*
X1029000Y476000D01*
X956500Y491000D02*
X969000D01*
X886000Y310000D02*
X920000D01*
X853800Y340670D02*
X858990Y345860D01*
X953578Y461578D02*
X971498Y479498D01*
X953578Y454578D02*
Y461578D01*
X952000Y453000D02*
X953578Y454578D01*
X971498Y479498D02*
X985000D01*
X939000Y368720D02*
X950000Y379720D01*
X919500Y469700D02*
X933750D01*
X944000Y459450D01*
Y458750D02*
Y459450D01*
X952000Y453000D02*
X955000D01*
X944000Y458750D02*
X949750Y453000D01*
X952000D01*
X1012000Y464000D02*
Y472998D01*
X1011000Y473998D02*
X1012000Y472998D01*
X1029000Y451000D02*
Y476000D01*
X983500Y438000D02*
X984000Y437500D01*
X970000Y438000D02*
X983500D01*
X906000Y421000D02*
X946000D01*
X834500Y469700D02*
X857300D01*
X906000Y421000D01*
X932523Y323000D02*
X939000D01*
X929078Y319078D02*
Y319555D01*
X920000Y310000D02*
X929078Y319078D01*
Y319555D02*
X932523Y323000D01*
X914000Y319000D02*
Y373287D01*
X885315Y401972D02*
X914000Y373287D01*
X1014500Y436000D02*
X1029000D01*
X1014000Y436500D02*
X1014500Y436000D01*
X989000Y483498D02*
X992502Y487000D01*
X993152Y486350D01*
X985000Y479498D02*
X989000Y483498D01*
X955000Y453000D02*
X970000D01*
X819000Y397000D02*
Y425000D01*
Y397000D02*
X831000Y385000D01*
X956000Y438000D02*
X970000D01*
X940750D02*
X941000D01*
X919500Y444300D02*
X934450D01*
X940750Y438000D01*
D19*
X834500Y444300D02*
D03*
Y469700D02*
D03*
X919500D02*
D03*
Y444300D02*
D03*
D20*
X549656Y228746D02*
D03*
Y279292D02*
D03*
X635000Y279000D02*
D03*
D21*
Y229000D02*
D03*
D22*
X770000Y261000D02*
D03*
Y231000D02*
D03*
X836932Y58399D02*
D03*
Y28399D02*
D03*
D23*
X787000Y239500D02*
D03*
Y254500D02*
D03*
X1029000Y433000D02*
D03*
Y448000D02*
D03*
X1014000Y449000D02*
D03*
Y434000D02*
D03*
X1000000Y449000D02*
D03*
Y434000D02*
D03*
X984000Y437500D02*
D03*
Y452500D02*
D03*
X970000Y438000D02*
D03*
Y453000D02*
D03*
D24*
X811000Y266000D02*
D03*
Y226000D02*
D03*
D25*
X858990Y345860D02*
D03*
D26*
X939000Y368720D02*
D03*
Y323000D02*
D03*
D27*
X982000Y28000D02*
D03*
X942000D02*
D03*
D28*
X978000Y56000D02*
D03*
X948000D02*
D03*
D29*
X1094750Y69000D02*
D03*
X1061250D02*
D03*
D30*
X956000Y438000D02*
D03*
X941000D02*
D03*
D31*
X952000Y453000D02*
D03*
Y486500D02*
D03*
D32*
X1011000Y473998D02*
D03*
X989000Y464498D02*
D03*
Y483498D02*
D03*
D47*
X871900Y268000D02*
D03*
X910000D02*
D03*
X948100D02*
D03*
X986200D02*
D03*
X1024300D02*
D03*
Y115600D02*
D03*
X986200D02*
D03*
X948100D02*
D03*
X910000D02*
D03*
X871900D02*
D03*
D60*
X713500Y276000D02*
X752000Y314500D01*
X712000Y276000D02*
X713500D01*
X752000Y314500D02*
Y404000D01*
X744000Y105000D02*
X748000Y109000D01*
X746000Y103000D02*
X790601Y58399D01*
X744000Y105000D02*
X746000Y103000D01*
X947500Y56500D02*
Y115500D01*
Y56500D02*
X948000Y56000D01*
X303000Y151400D02*
Y188000D01*
X359500Y90000D02*
Y94900D01*
X303000Y151400D02*
X359500Y94900D01*
X1017000Y322000D02*
X1091600D01*
X993100Y345900D02*
Y356500D01*
Y345900D02*
X1017000Y322000D01*
X987600Y362000D02*
X993100Y356500D01*
X1099000Y305000D02*
Y314600D01*
X1110000Y249000D02*
Y294000D01*
X1099000Y305000D02*
X1110000Y294000D01*
X1095600Y318000D02*
X1099000Y314600D01*
X742000Y414000D02*
Y421000D01*
X650000Y436000D02*
X727000D01*
X742000Y414000D02*
X752000Y404000D01*
X727000Y436000D02*
X742000Y421000D01*
X767500Y228500D02*
X770000Y231000D01*
X767000Y228500D02*
X767500D01*
X748000Y209500D02*
X767000Y228500D01*
X748000Y109000D02*
Y209500D01*
X602000Y388000D02*
X650000Y436000D01*
X472000Y424000D02*
X524000Y372000D01*
X368500Y424000D02*
X472000D01*
X360500Y416000D02*
X368500Y424000D01*
X1024300Y82700D02*
Y115600D01*
Y82700D02*
X1038000Y69000D01*
X897000Y55200D02*
X898500Y56700D01*
X934500Y31500D02*
Y37440D01*
X915240Y56700D02*
X934500Y37440D01*
X893500Y55200D02*
X897000D01*
X898500Y56700D02*
X915240D01*
X941850Y28150D02*
X942000Y28000D01*
X934500Y31500D02*
X938000Y28000D01*
X942000D01*
X641000Y369000D02*
X676000Y404000D01*
X638690Y279000D02*
X641000Y281310D01*
X635000Y279000D02*
X638690D01*
X641000Y281310D02*
Y369000D01*
X635000Y279000D02*
X642000D01*
X549934Y279570D02*
X556081D01*
X558113Y281602D01*
Y287749D01*
X561000Y290636D02*
Y391500D01*
X558113Y287749D02*
X561000Y290636D01*
X836932Y28399D02*
X867699D01*
X893500Y54200D01*
X772500Y233500D02*
X781142D01*
X561000Y391500D02*
X585500Y416000D01*
X668000Y105000D02*
Y109858D01*
X679000Y120858D02*
Y242000D01*
X642000Y279000D02*
X679000Y242000D01*
X668000Y109858D02*
X679000Y120858D01*
X853800Y116000D02*
X871500D01*
X871900Y115600D01*
X869600Y268000D02*
X871900D01*
X835100Y233500D02*
X869600Y268000D01*
X858990Y345860D02*
X871000Y333850D01*
Y269000D02*
Y333850D01*
X814500Y233500D02*
X835100D01*
X791000Y258500D02*
X807500D01*
X811000Y262000D02*
Y266000D01*
X772500Y258500D02*
X783000D01*
X770000Y261000D02*
X772500Y258500D01*
X807500Y258500D02*
X811000Y262000D01*
X787000Y254500D02*
X791000Y258500D01*
X783000Y258500D02*
X787000Y254500D01*
X811000Y226000D02*
Y230000D01*
X814500Y233500D01*
X787000Y239358D02*
Y239500D01*
X781142Y233500D02*
X787000Y239358D01*
X602000Y254000D02*
Y388000D01*
X624500Y231500D02*
X632500D01*
X602000Y254000D02*
X624500Y231500D01*
X632500D02*
X635000Y229000D01*
X524000Y254402D02*
Y372000D01*
X359000Y301000D02*
Y413418D01*
X360500Y414918D01*
Y416000D01*
X987600Y362000D02*
X1089600Y464000D01*
X1144000D01*
X1094600Y183747D02*
X1109853Y199000D01*
X1094600Y130000D02*
Y183747D01*
X1109853Y199000D02*
X1110000D01*
X1094600Y69150D02*
Y130000D01*
X1038000Y69000D02*
X1062500D01*
X836932Y99132D02*
X853800Y116000D01*
X836932Y58399D02*
Y99132D01*
X790601Y58399D02*
X836932D01*
X978000Y31500D02*
X981500Y28000D01*
X982000D01*
X978000Y31500D02*
Y56000D01*
X359000Y201000D02*
X359250Y200750D01*
X291000Y395000D02*
Y463000D01*
Y395000D02*
X292000Y394000D01*
X290000Y464000D02*
X291000Y463000D01*
Y47000D02*
X292000Y48000D01*
X524000Y254402D02*
X549656Y228746D01*
D61*
X984000Y365600D02*
Y437500D01*
Y365600D02*
X987600Y362000D01*
X835648Y443152D02*
X854095D01*
X834500Y444300D02*
X835648Y443152D01*
X854095D02*
X859878Y437368D01*
D62*
X752000Y404000D02*
D03*
X746000Y103000D02*
D03*
D63*
X676000Y404000D02*
D03*
X670000Y103000D02*
D03*
D64*
X896000Y31300D02*
D03*
D65*
Y56700D02*
D03*
D66*
X1145400Y130000D02*
D03*
X1146400Y335000D02*
D03*
X1038400Y362000D02*
D03*
D67*
X1094600Y130000D02*
D03*
X1095600Y335000D02*
D03*
X987600Y362000D02*
D03*
D68*
X1116000Y206000D02*
D03*
Y256000D02*
D03*
X712000Y226000D02*
D03*
Y276000D02*
D03*
D69*
X585500Y416000D02*
D03*
X489000Y301000D02*
D03*
X359000Y201000D02*
D03*
X489000D02*
D03*
D70*
X360500Y416000D02*
D03*
X584500Y90000D02*
D03*
X359500D02*
D03*
D71*
X303000Y151400D02*
D03*
Y100600D02*
D03*
D72*
X359000Y301000D02*
D03*
D73*
X1144000Y464000D02*
D03*
Y41000D02*
D03*
X290000Y464000D02*
D03*
X291000Y47000D02*
D03*
D74*
Y393000D02*
D03*
Y187000D02*
D03*
D75*
X1000000Y421000D02*
D03*
X969000Y491000D02*
D03*
X1012000Y464000D02*
D03*
D76*
X950000Y407000D02*
D03*
X883000Y310000D02*
D03*
X819000Y425000D02*
D03*
X831000Y385000D02*
D03*
X914000Y319000D02*
D03*
X946000Y421000D02*
D03*
X885315Y401972D02*
D03*
X859878Y437368D02*
D03*
M02*
