G04*
G04 #@! TF.GenerationSoftware,Altium Limited,Altium Designer,25.0.2 (28)*
G04*
G04 Layer_Physical_Order=2*
G04 Layer_Color=16711680*
%FSLAX44Y44*%
%MOMM*%
G71*
G04*
G04 #@! TF.SameCoordinates,8F412EF3-5CC8-44BB-A802-B28D9E73D2E3*
G04*
G04*
G04 #@! TF.FilePolarity,Positive*
G04*
G01*
G75*
%ADD10C,0.2000*%
%ADD23R,0.9500X1.0000*%
%ADD30R,1.0000X0.9500*%
%ADD31R,1.8000X1.3500*%
%ADD47C,1.9304*%
%ADD60C,1.0000*%
%ADD61C,0.5000*%
%ADD62R,3.0000X3.0000*%
%ADD63C,3.0000*%
%ADD64O,1.5000X1.3000*%
%ADD65R,1.5000X1.3000*%
%ADD66C,2.1000*%
%ADD67R,2.1000X2.1000*%
%ADD68O,1.8000X1.5000*%
%ADD69C,2.0000*%
%ADD70C,1.4000*%
%ADD71C,1.8000*%
%ADD72R,2.0000X2.0000*%
%ADD73C,6.0000*%
%ADD74C,2.5000*%
%ADD75C,0.9000*%
%ADD76C,0.8000*%
%ADD77R,1.2954X0.5080*%
%ADD78R,1.2000X0.8500*%
%ADD79C,0.6000*%
G36*
X977000Y454000D02*
Y400000D01*
X961500Y384500D01*
Y308500D01*
X953000Y300000D01*
X808000D01*
X798069Y309931D01*
Y366313D01*
X799828Y366896D01*
Y366896D01*
X807922D01*
Y355250D01*
X807922Y355250D01*
X808232Y353689D01*
X809116Y352366D01*
X815250Y346232D01*
Y336000D01*
Y324750D01*
X815000D01*
Y309250D01*
X820172D01*
X820249Y308861D01*
X821133Y307538D01*
X823555Y305116D01*
X823555Y305116D01*
X824878Y304232D01*
X826439Y303922D01*
X870376D01*
X870376Y303922D01*
X871937Y304232D01*
X873260Y305116D01*
X874066Y305922D01*
X877272D01*
X877399Y305702D01*
X878702Y304399D01*
X880298Y303477D01*
X882078Y303000D01*
X882606D01*
X883000Y302922D01*
X883394Y303000D01*
X883922D01*
X885702Y303477D01*
X887298Y304399D01*
X888601Y305702D01*
X889523Y307298D01*
X890000Y309078D01*
Y310922D01*
X889523Y312702D01*
X888601Y314298D01*
X887298Y315601D01*
X885702Y316523D01*
X883922Y317000D01*
X882078D01*
X880298Y316523D01*
X878702Y315601D01*
X877399Y314298D01*
X877272Y314078D01*
X872376D01*
X870816Y313768D01*
X869492Y312884D01*
X869492Y312884D01*
X868687Y312078D01*
X831000D01*
Y324750D01*
X830750D01*
Y336000D01*
Y352000D01*
X821018D01*
X816078Y356939D01*
Y364175D01*
X818078Y365003D01*
X818115Y364966D01*
X818116Y364966D01*
X819439Y364082D01*
X820999Y363772D01*
X821000Y363772D01*
X832330D01*
Y358100D01*
X856330D01*
Y371832D01*
X857098Y372600D01*
X857098Y372600D01*
X857982Y373923D01*
X858292Y375484D01*
Y391006D01*
X858292Y391006D01*
X857982Y392567D01*
X857098Y393890D01*
X857098Y393890D01*
X853214Y397774D01*
Y403086D01*
X853214Y403086D01*
Y404706D01*
X853214D01*
X853214Y405086D01*
Y415406D01*
X853214Y415786D01*
X853214D01*
Y417406D01*
X854673Y418713D01*
X855062Y418874D01*
X860392Y413543D01*
Y374000D01*
X860819Y371854D01*
X862035Y370035D01*
X885236Y346833D01*
X887055Y345618D01*
X889201Y345191D01*
X891830D01*
Y343549D01*
X909830D01*
Y358049D01*
X891830D01*
Y358049D01*
X889845Y358086D01*
X871608Y376323D01*
Y395908D01*
X871610Y395910D01*
X873608Y396621D01*
X876712Y393493D01*
X876712Y393471D01*
X876756Y393414D01*
X876876Y393322D01*
X877090Y393126D01*
X878160Y392131D01*
X886330Y384536D01*
Y379306D01*
X903330D01*
Y374036D01*
X909802D01*
X911252Y372880D01*
X911562Y371319D01*
X912446Y369996D01*
X916776Y365666D01*
Y352998D01*
X934776D01*
Y367498D01*
X926479D01*
X919408Y374569D01*
Y378036D01*
X919408Y378036D01*
X919330Y378430D01*
Y387036D01*
X919330D01*
Y400036D01*
X931580D01*
Y399286D01*
X947080D01*
Y399286D01*
X949079Y400000D01*
X950922D01*
X952702Y400477D01*
X954298Y401399D01*
X955601Y402702D01*
X956523Y404298D01*
X957000Y406078D01*
Y407922D01*
X956523Y409702D01*
X955601Y411298D01*
X954298Y412601D01*
X952702Y413523D01*
X951446Y413859D01*
X951410Y413908D01*
X950907Y415357D01*
X950899Y416000D01*
X951601Y416702D01*
X952523Y418298D01*
X953000Y420078D01*
Y421922D01*
X952523Y423702D01*
X951601Y425298D01*
X950298Y426601D01*
X948702Y427523D01*
X946922Y428000D01*
X945078D01*
X944300Y427791D01*
X943330Y428536D01*
Y428536D01*
X936347D01*
X936269Y428925D01*
X935385Y430248D01*
X935385Y430248D01*
X934080Y431553D01*
Y441786D01*
X918957D01*
Y455985D01*
X900035D01*
Y463485D01*
X904830D01*
Y476106D01*
X911776D01*
Y472934D01*
X929776D01*
Y487434D01*
X911776D01*
Y484262D01*
X884184D01*
X884184Y484262D01*
X882623Y483952D01*
X881300Y483068D01*
X881300Y483068D01*
X876311Y478078D01*
X866000D01*
Y483750D01*
X850000D01*
Y470750D01*
X835000D01*
Y455250D01*
X835330D01*
Y442036D01*
X835830D01*
Y430036D01*
X834744Y428486D01*
X834260D01*
Y418442D01*
X823828D01*
Y419896D01*
X799828D01*
Y417221D01*
X795858D01*
X795000Y417974D01*
D01*
X783974Y429000D01*
X734500D01*
X687000Y389000D01*
X669000D01*
X660000Y398000D01*
Y416565D01*
X747000Y496000D01*
X815000D01*
X795000Y476000D01*
Y476000D01*
X815000Y496000D01*
X935000D01*
X977000Y454000D01*
D02*
G37*
G36*
X834260Y392006D02*
X847446D01*
X850135Y389317D01*
Y377600D01*
X832330D01*
Y371928D01*
X823828D01*
Y386396D01*
X799828D01*
Y386396D01*
X798069Y386978D01*
Y399813D01*
X799828Y400396D01*
X799828Y400396D01*
Y400396D01*
X799828Y400396D01*
X823828D01*
Y402304D01*
X834260D01*
Y392006D01*
D02*
G37*
G36*
X613000Y404000D02*
X613000Y381000D01*
X522000Y290000D01*
X484000D01*
X469000Y302857D01*
Y343000D01*
X553000Y427000D01*
X590000D01*
X613000Y404000D01*
D02*
G37*
G36*
X391000Y183000D02*
Y91000D01*
X380000Y80000D01*
X355000D01*
X328000Y107000D01*
X328451Y200451D01*
X342000Y214000D01*
X366000D01*
X391000Y183000D01*
D02*
G37*
G36*
X776000Y212000D02*
Y87000D01*
X766000Y77000D01*
X733000D01*
X700000Y110000D01*
Y135000D01*
Y232000D01*
X708000Y239000D01*
X749000D01*
X776000Y212000D01*
D02*
G37*
G36*
X612000Y184000D02*
Y41000D01*
X586000Y15000D01*
X278000D01*
X259805Y33195D01*
X260123Y85123D01*
X288000Y113000D01*
X306750D01*
X351167Y72000D01*
X399999D01*
X415000Y87001D01*
X415000Y185000D01*
X448000Y218000D01*
X578000D01*
X612000Y184000D01*
D02*
G37*
G36*
X1174000Y371000D02*
X1174000Y42000D01*
X1154668D01*
X1130000Y56800D01*
Y329810D01*
X1107810Y352000D01*
X1085000Y352000D01*
X1072000Y339000D01*
Y267400D01*
X1059167Y252000D01*
X1018000D01*
X1006000Y264000D01*
Y381000D01*
X1002000Y385000D01*
X988000Y399000D01*
Y463000D01*
X966000Y485000D01*
X963000Y488000D01*
Y494000D01*
X966000Y497000D01*
X1048000D01*
X1174000Y371000D01*
D02*
G37*
G36*
X677000Y123000D02*
X759000Y41000D01*
X899000Y41000D01*
X907000Y33000D01*
Y19600D01*
X896333Y10000D01*
X736000D01*
X650000Y96000D01*
X650000Y113200D01*
X657539Y123000D01*
X677000Y123000D01*
D02*
G37*
%LPC*%
G36*
X934830Y348245D02*
X916830D01*
Y333745D01*
X921752D01*
Y330920D01*
X921752Y330920D01*
X922062Y329359D01*
X922946Y328036D01*
X923000Y327982D01*
Y320995D01*
X922503Y320544D01*
X921000Y319922D01*
X920523Y321702D01*
X919601Y323298D01*
X918298Y324601D01*
X916702Y325523D01*
X914922Y326000D01*
X913078D01*
X911298Y325523D01*
X909702Y324601D01*
X908399Y323298D01*
X907477Y321702D01*
X907000Y319922D01*
Y318078D01*
X907477Y316298D01*
X908399Y314702D01*
X909702Y313399D01*
X911298Y312477D01*
X913078Y312000D01*
X914922D01*
X915167Y312066D01*
X917116Y310116D01*
X918439Y309232D01*
X920000Y308922D01*
X920000Y308922D01*
X923000D01*
Y305250D01*
X954000D01*
Y318250D01*
X954000D01*
Y333750D01*
X934830D01*
Y348245D01*
D02*
G37*
%LPD*%
D10*
X879624Y396349D02*
G03*
X879867Y396113I5690J5623D01*
G01*
X1000000Y400400D02*
Y422894D01*
X1004339Y427234D01*
Y427339D01*
X1012000Y435000D01*
Y464000D01*
X880000Y310000D02*
X883000Y307000D01*
X824017Y310422D02*
Y315983D01*
X826439Y308000D02*
X870376D01*
X824017Y310422D02*
X826439Y308000D01*
X823000Y317000D02*
X824017Y315983D01*
X1024300Y347900D02*
X1038400Y362000D01*
X1024300Y268000D02*
Y347900D01*
X940738Y407000D02*
X950000D01*
X958000Y400000D02*
Y430000D01*
X950286Y392286D02*
X958000Y400000D01*
X939214Y448786D02*
X958000Y430000D01*
X972000Y491000D02*
X985000D01*
X823000Y317000D02*
X823000Y317000D01*
Y329000D01*
X872376Y310000D02*
X880000D01*
X870376Y308000D02*
X872376Y310000D01*
X932501Y423864D02*
X935580Y420786D01*
X932501Y423864D02*
Y427364D01*
X926330Y433536D02*
X932501Y427364D01*
X935580Y420786D02*
X935794Y421000D01*
X946000D01*
X926330Y433536D02*
Y433786D01*
X876466Y431904D02*
Y432746D01*
X875858Y433354D02*
X876466Y432746D01*
X876000Y400839D02*
X876466Y431904D01*
X876000Y400000D02*
Y400839D01*
Y400000D02*
X876581Y399415D01*
X862330Y446036D02*
X875858Y433354D01*
X876581Y399415D02*
X879624Y396349D01*
X939330Y392286D02*
X950286D01*
X926330Y448786D02*
X939214D01*
X925830Y449286D02*
X926330Y448786D01*
X985000Y491000D02*
X1012000Y464000D01*
X1012000D01*
X1000000Y400400D02*
X1038400Y362000D01*
X939766Y407972D02*
X940738Y407000D01*
X909208Y435163D02*
X910830Y436786D01*
X909208Y421673D02*
Y435163D01*
X901284Y413749D02*
X909208Y421673D01*
X901284Y411786D02*
Y413749D01*
X899744Y410246D02*
X901284Y411786D01*
X922580Y460931D02*
X925830Y457681D01*
X920830Y460931D02*
X922580D01*
X926330Y381786D02*
X926580D01*
X934000Y472351D02*
Y489000D01*
X855593D02*
X934000D01*
X931435Y350000D02*
X936000Y354565D01*
X918928Y350000D02*
X931435D01*
X903278Y334350D02*
X918928Y350000D01*
X926580Y381786D02*
X936000Y372366D01*
Y354565D02*
Y372366D01*
X844330Y334350D02*
X903278D01*
X838000Y317000D02*
X838250D01*
X844330Y323080D02*
Y334350D01*
X838250Y317000D02*
X844330Y323080D01*
X849000Y481750D02*
Y482407D01*
X855593Y489000D01*
X843000Y476000D02*
X843250D01*
X849000Y481750D01*
X829080Y438036D02*
Y469692D01*
X835388Y476000D02*
X843000D01*
X829080Y469692D02*
X835388Y476000D01*
X828709Y425000D02*
X829082Y425373D01*
X922580Y460931D02*
X934000Y472351D01*
X895957Y448236D02*
Y470608D01*
X895830Y470735D02*
X895957Y470608D01*
X926330Y381786D02*
X930080Y385536D01*
X939330Y392036D02*
Y392286D01*
X932830Y385536D02*
X939330Y392036D01*
X930080Y385536D02*
X932830D01*
X926330Y381786D02*
Y394786D01*
X925830Y449286D02*
Y457681D01*
X828830Y437786D02*
X829082Y437534D01*
Y425373D02*
Y437534D01*
X828830Y437786D02*
X829080Y438036D01*
X831000Y385000D02*
X831077Y384923D01*
X843660D02*
X843737Y384846D01*
X831077Y384923D02*
X843660D01*
X847674Y397546D02*
X854214Y391006D01*
X846580Y367850D02*
X854214Y375484D01*
Y391006D01*
X843737Y397546D02*
X847674D01*
X812000Y375693D02*
X812953Y376646D01*
X812000Y355250D02*
Y375693D01*
X823000Y344000D02*
Y344250D01*
X812000Y355250D02*
X823000Y344250D01*
X920000Y313000D02*
X931000D01*
X914000Y319000D02*
X920000Y313000D01*
X925830Y330920D02*
Y340995D01*
Y330920D02*
X930750Y326000D01*
X931000D01*
X819828Y369021D02*
X820999Y367850D01*
X819828Y369021D02*
Y370896D01*
X820999Y367850D02*
X846580D01*
X858000Y463000D02*
Y476000D01*
X858000Y463000D02*
X858000Y463000D01*
X860000Y474000D02*
X878000D01*
X858000Y476000D02*
X860000Y474000D01*
X878000D02*
X884184Y480184D01*
X920776D01*
X843000Y463000D02*
X843000Y463000D01*
X911330Y381786D02*
X911580D01*
X908270Y384846D02*
X911330Y381786D01*
X915330Y372880D02*
Y378036D01*
X858330Y449786D02*
X862330Y446036D01*
X895830Y448109D02*
X895957Y448236D01*
X946000Y313000D02*
X946000Y313000D01*
Y326000D01*
X890330Y386386D02*
X895807Y384846D01*
Y410246D02*
X899744D01*
X891870Y397546D02*
X895807D01*
X890330Y399086D02*
X891870Y397546D01*
X879867Y396113D02*
X890330Y386386D01*
X885315Y401972D02*
X890330Y399086D01*
X895807Y397546D02*
X908570D01*
X911330Y394786D02*
Y407786D01*
X908570Y397546D02*
X911330Y394786D01*
X895807Y384846D02*
X908270D01*
X895830Y436786D02*
Y448109D01*
X895807Y422946D02*
Y436763D01*
X895830Y436786D01*
X910830D02*
Y448109D01*
Y436786D02*
X911080D01*
X914830Y432786D02*
Y433036D01*
X911080Y436786D02*
X914830Y433036D01*
Y432786D02*
X917580Y430036D01*
X910830Y448109D02*
X910957Y448236D01*
X911580Y381786D02*
X915330Y378036D01*
Y372880D02*
X925026Y363184D01*
X926330Y407786D02*
X938830D01*
X917580Y423536D02*
X920330Y420786D01*
X917580Y423536D02*
Y430036D01*
D23*
X926330Y433786D02*
D03*
Y448786D02*
D03*
X823000Y329000D02*
D03*
Y344000D02*
D03*
X829082Y425373D02*
D03*
Y410373D02*
D03*
X939330Y407286D02*
D03*
Y392286D02*
D03*
D30*
X911330Y407786D02*
D03*
X926330D02*
D03*
X926330Y381786D02*
D03*
X911330D02*
D03*
X823000Y317000D02*
D03*
X838000D02*
D03*
X858330Y449786D02*
D03*
X843330D02*
D03*
X828830Y437786D02*
D03*
X843830D02*
D03*
X931000Y326000D02*
D03*
X946000D02*
D03*
X931000Y313000D02*
D03*
X946000D02*
D03*
X926330Y394786D02*
D03*
X911330D02*
D03*
X895830Y436786D02*
D03*
X910830D02*
D03*
X935330Y420786D02*
D03*
X920330D02*
D03*
X910957Y448236D02*
D03*
X895957D02*
D03*
X843000Y463000D02*
D03*
X858000D02*
D03*
X858000Y476000D02*
D03*
X843000D02*
D03*
D31*
X844330Y334350D02*
D03*
Y367850D02*
D03*
X811828Y410146D02*
D03*
Y376646D02*
D03*
D47*
X871900Y268000D02*
D03*
X910000D02*
D03*
X948100D02*
D03*
X986200D02*
D03*
X1024300D02*
D03*
Y115600D02*
D03*
X986200D02*
D03*
X948100D02*
D03*
X910000D02*
D03*
X871900D02*
D03*
D60*
X712000Y137000D02*
X746000Y103000D01*
X712000Y137000D02*
Y226000D01*
X1108000Y362000D02*
X1145400Y324600D01*
Y140615D02*
Y324600D01*
X1038400Y362000D02*
X1108000D01*
X676000Y404000D02*
X715000Y443000D01*
X801000D01*
X292000Y48000D02*
Y100600D01*
X291000Y47000D02*
X292000Y48000D01*
Y100600D02*
X293000Y101600D01*
X1144700Y41700D02*
Y129300D01*
X1145400Y130000D01*
X1144000Y41000D02*
X1144700Y41700D01*
X1142423Y130000D02*
X1145400D01*
X790000Y111420D02*
X844720Y56700D01*
X790000Y111420D02*
Y403294D01*
X795858Y409152D02*
X810835D01*
X790000Y403294D02*
X795858Y409152D01*
X810835D02*
X812055Y410373D01*
X829082D01*
X1145400Y130000D02*
Y140180D01*
X1139600Y41000D02*
X1144000D01*
X489000Y301000D02*
Y319500D01*
X585500Y416000D01*
X540500Y46000D02*
X584500Y90000D01*
X489000Y201000D02*
X583735Y106265D01*
Y90765D02*
Y106265D01*
Y90765D02*
X584500Y90000D01*
X487087Y196373D02*
Y199087D01*
X489000Y201000D01*
X301000Y46000D02*
X540500D01*
X844720Y56700D02*
X896000D01*
X668000Y105000D02*
X741700Y31300D01*
Y31300D02*
X896000Y31300D01*
X829082Y410373D02*
X843610D01*
X843737Y410246D01*
D61*
X866000Y374000D02*
Y415866D01*
X889201Y350799D02*
X900830D01*
X866000Y374000D02*
X889201Y350799D01*
X844080Y437786D02*
X866000Y415866D01*
X843330Y449786D02*
Y462670D01*
X843000Y463000D02*
X843330Y462670D01*
X850808Y437850D02*
X859878Y437368D01*
X843737Y437693D02*
X843830Y437786D01*
X843580Y449786D02*
X845830Y452036D01*
X843830Y437786D02*
Y449286D01*
X846330Y437850D02*
X850808Y437850D01*
X843830Y437786D02*
X846330Y437850D01*
X843737Y422946D02*
Y437693D01*
X843330Y449786D02*
X843580D01*
D62*
X752000Y404000D02*
D03*
X746000Y103000D02*
D03*
D63*
X676000Y404000D02*
D03*
X670000Y103000D02*
D03*
D64*
X896000Y31300D02*
D03*
D65*
Y56700D02*
D03*
D66*
X1145400Y130000D02*
D03*
X1146400Y335000D02*
D03*
X1038400Y362000D02*
D03*
D67*
X1094600Y130000D02*
D03*
X1095600Y335000D02*
D03*
X987600Y362000D02*
D03*
D68*
X1116000Y206000D02*
D03*
Y256000D02*
D03*
X712000Y226000D02*
D03*
Y276000D02*
D03*
D69*
X585500Y416000D02*
D03*
X489000Y301000D02*
D03*
X359000Y201000D02*
D03*
X489000D02*
D03*
D70*
X360500Y416000D02*
D03*
X584500Y90000D02*
D03*
X359500D02*
D03*
D71*
X303000Y151400D02*
D03*
Y100600D02*
D03*
D72*
X359000Y301000D02*
D03*
D73*
X1144000Y464000D02*
D03*
Y41000D02*
D03*
X290000Y464000D02*
D03*
X291000Y47000D02*
D03*
D74*
Y393000D02*
D03*
Y187000D02*
D03*
D75*
X1000000Y421000D02*
D03*
X969000Y491000D02*
D03*
X1012000Y464000D02*
D03*
D76*
X950000Y407000D02*
D03*
X883000Y310000D02*
D03*
X819000Y425000D02*
D03*
X831000Y385000D02*
D03*
X914000Y319000D02*
D03*
X946000Y421000D02*
D03*
X885315Y401972D02*
D03*
X859878Y437368D02*
D03*
D77*
X843737Y422946D02*
D03*
Y410246D02*
D03*
Y397546D02*
D03*
Y384846D02*
D03*
X895807D02*
D03*
Y397546D02*
D03*
Y410246D02*
D03*
Y422946D02*
D03*
D78*
X900830Y350799D02*
D03*
X925776Y360248D02*
D03*
X925830Y340995D02*
D03*
X895830Y470735D02*
D03*
X920776Y480184D02*
D03*
X920830Y460931D02*
D03*
D79*
X801000Y443000D02*
X819000Y425000D01*
X828709D01*
M02*
