M48
;Layer_Color=9474304
;FILE_FORMAT=4:4
METRIC,LZ
;TYPE=PLATED
T01F00S00C0.5000
T02F00S00C0.8000
T03F00S00C0.9000
T04F00S00C1.0000
T05F00S00C1.0500
T06F00S00C1.1000
T07F00S00C1.4224
T08F00S00C3.0000
%
T01
X00883Y0031
X00914Y00319
X00831Y00385
X00819Y00425
X00859878Y00437368
X00885315Y00401972
X0095Y00407
X00946Y00421
X01
X01012Y00464
X00969Y00491
T02
X00303Y001006
Y001514
X00896Y000567
Y000313
T03
X00712Y00226
Y00276
X009876Y00362
X010384
X010956Y00335
X011464
X01116Y00256
Y00206
X010946Y0013
X011454
T04
X00359Y00201
Y00301
X00489
Y00201
X005855Y00416
T05
X003595Y0009
X005845
X003605Y00416
T06
X00291Y00187
Y00393
X0067Y00103
X00746
X00752Y00404
X00676
T07
X008719Y001156
X0091
X009481
X009862
X010243
Y00268
X009862
X009481
X0091
X008719
T08
X00291Y00047
X01144Y00041
Y00464
X0029
M30
