G04*
G04 #@! TF.GenerationSoftware,Altium Limited,Altium Designer,25.0.2 (28)*
G04*
G04 Layer_Color=128*
%FSLAX44Y44*%
%MOMM*%
G71*
G04*
G04 #@! TF.SameCoordinates,8F412EF3-5CC8-44BB-A802-B28D9E73D2E3*
G04*
G04*
G04 #@! TF.FilePolarity,Positive*
G04*
G01*
G75*
%ADD23R,0.9500X1.0000*%
%ADD30R,1.0000X0.9500*%
%ADD31R,1.8000X1.3500*%
%ADD77R,1.2954X0.5080*%
%ADD78R,1.2000X0.8500*%
D23*
X926330Y433786D02*
D03*
Y448786D02*
D03*
X823000Y329000D02*
D03*
Y344000D02*
D03*
X829082Y425373D02*
D03*
Y410373D02*
D03*
X939330Y407286D02*
D03*
Y392286D02*
D03*
D30*
X911330Y407786D02*
D03*
X926330D02*
D03*
X926330Y381786D02*
D03*
X911330D02*
D03*
X823000Y317000D02*
D03*
X838000D02*
D03*
X858330Y449786D02*
D03*
X843330D02*
D03*
X828830Y437786D02*
D03*
X843830D02*
D03*
X931000Y326000D02*
D03*
X946000D02*
D03*
X931000Y313000D02*
D03*
X946000D02*
D03*
X926330Y394786D02*
D03*
X911330D02*
D03*
X895830Y436786D02*
D03*
X910830D02*
D03*
X935330Y420786D02*
D03*
X920330D02*
D03*
X910957Y448236D02*
D03*
X895957D02*
D03*
X843000Y463000D02*
D03*
X858000D02*
D03*
X858000Y476000D02*
D03*
X843000D02*
D03*
D31*
X844330Y334350D02*
D03*
Y367850D02*
D03*
X811828Y410146D02*
D03*
Y376646D02*
D03*
D77*
X843737Y422946D02*
D03*
Y410246D02*
D03*
Y397546D02*
D03*
Y384846D02*
D03*
X895807D02*
D03*
Y397546D02*
D03*
Y410246D02*
D03*
Y422946D02*
D03*
D78*
X900830Y350799D02*
D03*
X925776Y360248D02*
D03*
X925830Y340995D02*
D03*
X895830Y470735D02*
D03*
X920776Y480184D02*
D03*
X920830Y460931D02*
D03*
M02*
