G04*
G04 #@! TF.GenerationSoftware,Altium Limited,Altium Designer,25.0.2 (28)*
G04*
G04 Layer_Color=8421504*
%FSLAX44Y44*%
%MOMM*%
G71*
G04*
G04 #@! TF.SameCoordinates,8F412EF3-5CC8-44BB-A802-B28D9E73D2E3*
G04*
G04*
G04 #@! TF.FilePolarity,Positive*
G04*
G01*
G75*
%ADD19O,2.2500X1.6000*%
%ADD20O,3.0000X1.5000*%
%ADD21R,3.0000X1.5000*%
%ADD22R,1.6000X1.5000*%
%ADD23R,0.9500X1.0000*%
%ADD24R,1.7000X2.5000*%
%ADD25R,5.9944X5.5118*%
%ADD26R,2.1844X0.8890*%
%ADD27R,2.5000X1.7000*%
%ADD28R,1.5000X1.6000*%
%ADD29R,1.3500X1.8000*%
%ADD30R,1.0000X0.9500*%
%ADD31R,1.8000X1.3500*%
%ADD32R,1.4000X1.0000*%
D19*
X834500Y444300D02*
D03*
Y469700D02*
D03*
X919500D02*
D03*
Y444300D02*
D03*
D20*
X549656Y228746D02*
D03*
Y279292D02*
D03*
X635000Y279000D02*
D03*
D21*
Y229000D02*
D03*
D22*
X770000Y261000D02*
D03*
Y231000D02*
D03*
X836932Y58399D02*
D03*
Y28399D02*
D03*
D23*
X787000Y239500D02*
D03*
Y254500D02*
D03*
X1029000Y433000D02*
D03*
Y448000D02*
D03*
X1014000Y449000D02*
D03*
Y434000D02*
D03*
X1000000Y449000D02*
D03*
Y434000D02*
D03*
X984000Y437500D02*
D03*
Y452500D02*
D03*
X970000Y438000D02*
D03*
Y453000D02*
D03*
D24*
X811000Y266000D02*
D03*
Y226000D02*
D03*
D25*
X858990Y345860D02*
D03*
D26*
X939000Y368720D02*
D03*
Y323000D02*
D03*
D27*
X982000Y28000D02*
D03*
X942000D02*
D03*
D28*
X978000Y56000D02*
D03*
X948000D02*
D03*
D29*
X1094750Y69000D02*
D03*
X1061250D02*
D03*
D30*
X956000Y438000D02*
D03*
X941000D02*
D03*
D31*
X952000Y453000D02*
D03*
Y486500D02*
D03*
D32*
X1011000Y473998D02*
D03*
X989000Y464498D02*
D03*
Y483498D02*
D03*
M02*
