G04*
G04 #@! TF.GenerationSoftware,Altium Limited,Altium Designer,25.0.2 (28)*
G04*
G04 Layer_Color=16711935*
%FSLAX44Y44*%
%MOMM*%
G71*
G04*
G04 #@! TF.SameCoordinates,8F412EF3-5CC8-44BB-A802-B28D9E73D2E3*
G04*
G04*
G04 #@! TF.FilePolarity,Positive*
G04*
G01*
G75*
%ADD13C,0.1270*%
%ADD15C,0.1000*%
%ADD17C,0.0762*%
%ADD83C,0.0254*%
%ADD84C,0.0000*%
%ADD85R,2.9200X0.6187*%
%ADD86R,0.6187X2.9200*%
D13*
X340500Y343500D02*
X605500D01*
X340500D02*
Y488500D01*
X605500Y343500D02*
Y488500D01*
X340500D02*
X605500D01*
X339500Y162500D02*
X604500D01*
Y17500D02*
Y162500D01*
X339500Y17500D02*
Y162500D01*
Y17500D02*
X604500D01*
D15*
X910830Y403786D02*
Y411786D01*
X926830Y403786D02*
Y411786D01*
X910830Y403786D02*
X926830D01*
X910830Y411786D02*
X926830D01*
X926830Y377786D02*
Y385786D01*
X910830Y377786D02*
Y385786D01*
X926830D01*
X910830Y377786D02*
X926830D01*
X922330Y433286D02*
X930330D01*
X922330Y449286D02*
X930330D01*
Y433286D02*
Y449286D01*
X922330Y433286D02*
Y449286D01*
X783000Y239000D02*
X791000D01*
X783000Y255000D02*
X791000D01*
X783000Y239000D02*
Y255000D01*
X791000Y239000D02*
Y255000D01*
X825600Y223000D02*
Y269000D01*
X796400Y223000D02*
Y269000D01*
X825600D01*
X796400Y223000D02*
X825600D01*
X985000Y13400D02*
Y42600D01*
X939000Y13400D02*
Y42600D01*
Y13400D02*
X985000D01*
X939000Y42600D02*
X985000D01*
X956500Y434000D02*
Y442000D01*
X940500Y434000D02*
Y442000D01*
Y434000D02*
X956500D01*
X940500Y442000D02*
X956500D01*
X1025000Y432500D02*
Y448500D01*
X1033000Y432500D02*
Y448500D01*
X1025000Y432500D02*
X1033000D01*
X1025000Y448500D02*
X1033000D01*
X1010000Y449500D02*
X1018000D01*
X1010000Y433500D02*
X1018000D01*
Y449500D01*
X1010000Y433500D02*
Y449500D01*
X996000D02*
X1004000D01*
X996000Y433500D02*
X1004000D01*
Y449500D01*
X996000Y433500D02*
Y449500D01*
X980000Y437000D02*
X988000D01*
X980000Y453000D02*
X988000D01*
X980000Y437000D02*
Y453000D01*
X988000Y437000D02*
Y453000D01*
X966000Y437500D02*
X974000D01*
X966000Y453500D02*
X974000D01*
X966000Y437500D02*
Y453500D01*
X974000Y437500D02*
Y453500D01*
X822500Y313000D02*
X838500D01*
X822500Y321000D02*
X838500D01*
X822500Y313000D02*
Y321000D01*
X838500Y313000D02*
Y321000D01*
X827000Y328500D02*
Y344500D01*
X819000Y328500D02*
Y344500D01*
Y328500D02*
X827000D01*
X819000Y344500D02*
X827000D01*
X825082Y409873D02*
Y425873D01*
X833082Y409873D02*
Y425873D01*
X825082D02*
X833082D01*
X825082Y409873D02*
X833082D01*
X842830Y453786D02*
X858830D01*
X842830Y445786D02*
X858830D01*
Y453786D01*
X842830Y445786D02*
Y453786D01*
X828330Y433786D02*
X844330D01*
X828330Y441786D02*
X844330D01*
X828330Y433786D02*
Y441786D01*
X844330Y433786D02*
Y441786D01*
X930500Y322000D02*
X946500D01*
X930500Y330000D02*
X946500D01*
X930500Y322000D02*
Y330000D01*
X946500Y322000D02*
Y330000D01*
X930500Y309000D02*
X946500D01*
X930500Y317000D02*
X946500D01*
X930500Y309000D02*
Y317000D01*
X946500Y309000D02*
Y317000D01*
X910830Y398786D02*
X926830D01*
X910830Y390786D02*
X926830D01*
Y398786D01*
X910830Y390786D02*
Y398786D01*
X935330Y391786D02*
Y407786D01*
X943330Y391786D02*
Y407786D01*
X935330D02*
X943330D01*
X935330Y391786D02*
X943330D01*
X895330Y432786D02*
X911330D01*
X895330Y440786D02*
X911330D01*
X895330Y432786D02*
Y440786D01*
X911330Y432786D02*
Y440786D01*
X919830Y424786D02*
X935830D01*
X919830Y416786D02*
X935830D01*
Y424786D01*
X919830Y416786D02*
Y424786D01*
X895457Y452235D02*
X911457D01*
X895457Y444235D02*
X911457D01*
Y452235D01*
X895457Y444235D02*
Y452235D01*
X842500Y459000D02*
Y467000D01*
X858500Y459000D02*
Y467000D01*
X842500Y459000D02*
X858500D01*
X842500Y467000D02*
X858500D01*
X842500Y480000D02*
X858500D01*
X842500Y472000D02*
X858500D01*
Y480000D01*
X842500Y472000D02*
Y480000D01*
D17*
X904697Y402544D02*
Y398379D01*
X903864Y397546D01*
X902198D01*
X901365Y398379D01*
Y402544D01*
X896366Y397546D02*
X899698D01*
X896366Y400878D01*
Y401711D01*
X897199Y402544D01*
X898865D01*
X899698Y401711D01*
X888695Y419110D02*
X885363Y415778D01*
X888695D02*
X885363Y419110D01*
X888695Y417444D02*
X885363D01*
X887029Y415778D02*
Y419110D01*
X954450Y169575D02*
X949452D01*
Y172074D01*
X950285Y172907D01*
X951951D01*
X952784Y172074D01*
Y169575D01*
Y171241D02*
X954450Y172907D01*
Y177073D02*
Y175406D01*
X953617Y174573D01*
X951951D01*
X951118Y175406D01*
Y177073D01*
X951951Y177906D01*
X952784D01*
Y174573D01*
X954450Y180405D02*
X950285D01*
X951951D01*
Y179572D01*
Y181238D01*
Y180405D01*
X950285D01*
X949452Y181238D01*
Y183737D02*
X954450D01*
Y186236D01*
X953617Y187069D01*
X950285D01*
X949452Y186236D01*
Y183737D01*
X954450Y191235D02*
Y189569D01*
X953617Y188735D01*
X951951D01*
X951118Y189569D01*
Y191235D01*
X951951Y192068D01*
X952784D01*
Y188735D01*
X954450Y193734D02*
Y196233D01*
X953617Y197066D01*
X952784Y196233D01*
Y194567D01*
X951951Y193734D01*
X951118Y194567D01*
Y197066D01*
X954450Y202064D02*
Y198732D01*
X951118Y202064D01*
X950285D01*
X949452Y201231D01*
Y199565D01*
X950285Y198732D01*
X855035Y112425D02*
X858367Y115757D01*
Y112425D02*
X855035Y115757D01*
X856701Y112425D02*
Y115757D01*
X858367Y114091D02*
X855035D01*
X881977Y323635D02*
X876979D01*
Y326134D01*
X877812Y326967D01*
X879478D01*
X880311Y326134D01*
Y323635D01*
Y325301D02*
X881977Y326967D01*
Y331133D02*
Y329466D01*
X881144Y328633D01*
X879478D01*
X878645Y329466D01*
Y331133D01*
X879478Y331966D01*
X880311D01*
Y328633D01*
X881977Y334465D02*
X877812D01*
X879478D01*
Y333632D01*
Y335298D01*
Y334465D01*
X877812D01*
X876979Y335298D01*
Y337797D02*
X881977D01*
Y340296D01*
X881144Y341129D01*
X877812D01*
X876979Y340296D01*
Y337797D01*
X881977Y345295D02*
Y343629D01*
X881144Y342795D01*
X879478D01*
X878645Y343629D01*
Y345295D01*
X879478Y346128D01*
X880311D01*
Y342795D01*
X881977Y347794D02*
Y350293D01*
X881144Y351126D01*
X880311Y350293D01*
Y348627D01*
X879478Y347794D01*
X878645Y348627D01*
Y351126D01*
X881977Y356124D02*
Y352792D01*
X878645Y356124D01*
X877812D01*
X876979Y355291D01*
Y353625D01*
X877812Y352792D01*
X906387Y319825D02*
X909719Y323157D01*
Y319825D02*
X906387Y323157D01*
X908053Y319825D02*
Y323157D01*
X909719Y321491D02*
X906387D01*
D83*
X866724Y428407D02*
G03*
X872820Y428407I3048J0D01*
G01*
X889330Y379385D02*
Y428407D01*
X850214D02*
X889330D01*
X850214Y379385D02*
Y428407D01*
Y379385D02*
X889330D01*
X838784Y425486D02*
X850214D01*
X838784Y420406D02*
Y425486D01*
Y420406D02*
X850214D01*
Y425486D01*
X838784Y412786D02*
X850214D01*
X838784Y407706D02*
Y412786D01*
Y407706D02*
X850214D01*
Y412786D01*
X838784Y400086D02*
X850214D01*
X838784Y395006D02*
Y400086D01*
Y395006D02*
X850214D01*
Y400086D01*
X838784Y387386D02*
X850214D01*
X838784Y382306D02*
Y387386D01*
Y382306D02*
X850214D01*
Y387386D01*
X889330Y382306D02*
X900760D01*
Y387386D01*
X889330D02*
X900760D01*
X889330Y382306D02*
Y387386D01*
Y395006D02*
X900760D01*
Y400086D01*
X889330D02*
X900760D01*
X889330Y395006D02*
Y400086D01*
Y407706D02*
X900760D01*
Y412786D01*
X889330D02*
X900760D01*
X889330Y407706D02*
Y412786D01*
Y420406D02*
X900760D01*
Y425486D01*
X889330D02*
X900760D01*
X889330Y420406D02*
Y425486D01*
X833038Y81818D02*
X1063162D01*
X833038D02*
Y301782D01*
X1063162D01*
Y81818D02*
Y301782D01*
X844512Y312205D02*
X906742D01*
X844512D02*
Y379515D01*
X906742D01*
Y312205D02*
Y379515D01*
Y350305D02*
X916902D01*
Y341415D02*
Y350305D01*
X906742Y341415D02*
X916902D01*
X906742D02*
Y350305D01*
Y373165D02*
X948398D01*
Y364275D02*
Y373165D01*
X906742Y364275D02*
X948398D01*
X906742D02*
Y373165D01*
Y327445D02*
X948398D01*
Y318555D02*
Y327445D01*
X906742Y318555D02*
X948398D01*
X906742D02*
Y327445D01*
D84*
X833038Y188752D02*
G03*
X833038Y194848I0J3048D01*
G01*
X872662Y125252D02*
G03*
X872662Y125252I-762J0D01*
G01*
D85*
X810999Y265907D02*
D03*
D86*
X942094Y28000D02*
D03*
M02*
